<svg width="21" height="20" viewBox="0 0 21 20" fill="none" xmlns="http://www.w3.org/2000/svg">
<g clip-path="url(#clip0_1854_6987)">
<path d="M2.33147 18.3327L3.45814 14.1927C2.71575 12.9201 2.32572 11.4727 2.32814 9.99935C2.32814 5.39685 6.05897 1.66602 10.6615 1.66602C15.264 1.66602 18.9948 5.39685 18.9948 9.99935C18.9948 14.6018 15.264 18.3327 10.6615 18.3327C9.18879 18.3351 7.74202 17.9453 6.4698 17.2035L2.33147 18.3327ZM7.65397 6.08935C7.54636 6.09603 7.4412 6.12437 7.3448 6.17268C7.2544 6.22387 7.17188 6.28787 7.0998 6.36268C6.9998 6.45685 6.94314 6.53852 6.8823 6.61768C6.57431 7.01851 6.40864 7.51053 6.41147 8.01602C6.41314 8.42435 6.5198 8.82185 6.68647 9.19352C7.0273 9.94518 7.58814 10.741 8.32897 11.4785C8.5073 11.656 8.68147 11.8343 8.86897 12.0002C9.78846 12.8097 10.8842 13.3935 12.069 13.7052L12.5431 13.7777C12.6973 13.786 12.8515 13.7743 13.0065 13.7668C13.2492 13.7543 13.4861 13.6886 13.7006 13.5743C13.839 13.501 13.904 13.4643 14.0198 13.391C14.0198 13.391 14.0556 13.3677 14.124 13.316C14.2365 13.2327 14.3056 13.1735 14.399 13.076C14.4681 13.0043 14.5281 12.9202 14.574 12.8243C14.639 12.6885 14.704 12.4293 14.7306 12.2135C14.7506 12.0485 14.7448 11.9585 14.7423 11.9027C14.739 11.8135 14.6648 11.721 14.584 11.6818L14.099 11.4643C14.099 11.4643 13.374 11.1485 12.9315 10.9468C12.8848 10.9265 12.8348 10.9149 12.784 10.9127C12.727 10.9068 12.6693 10.9132 12.615 10.9315C12.5607 10.9498 12.5109 10.9794 12.469 11.0185V11.0168C12.4648 11.0168 12.409 11.0643 11.8065 11.7943C11.7719 11.8408 11.7243 11.8759 11.6696 11.8952C11.615 11.9145 11.5559 11.9171 11.4998 11.9027C11.4455 11.8882 11.3923 11.8698 11.3406 11.8477C11.2373 11.8043 11.2015 11.7877 11.1306 11.7568L11.1265 11.7552C10.6497 11.547 10.2083 11.2659 9.81814 10.9218C9.71314 10.8302 9.61564 10.7302 9.51564 10.6335C9.18779 10.3195 8.90207 9.96436 8.66564 9.57685L8.61647 9.49768C8.58116 9.44449 8.5526 9.3871 8.53147 9.32685C8.4998 9.20435 8.5823 9.10602 8.5823 9.10602C8.5823 9.10602 8.7848 8.88435 8.87897 8.76435C8.95738 8.66462 9.03053 8.56087 9.09814 8.45352C9.19647 8.29518 9.2273 8.13268 9.17564 8.00685C8.9423 7.43685 8.70064 6.86935 8.4523 6.30602C8.40314 6.19435 8.2573 6.11435 8.1248 6.09852C8.0798 6.09352 8.0348 6.08852 7.9898 6.08518C7.87789 6.07962 7.76575 6.08157 7.65397 6.08935Z" fill="#2B2B2A"/>
</g>
<defs>
<clipPath id="clip0_1854_6987">
<rect width="20" height="20" fill="white" transform="translate(0.664062)"/>
</clipPath>
</defs>
</svg>
