<svg width="21" height="20" viewBox="0 0 21 20" fill="none" xmlns="http://www.w3.org/2000/svg">
<path d="M10.1615 1.66602C5.55907 1.66602 1.82812 5.39696 1.82812 9.99935C1.82812 14.6017 5.55907 18.3327 10.1615 18.3327C14.7638 18.3327 18.4948 14.6017 18.4948 9.99935C18.4948 5.39696 14.7638 1.66602 10.1615 1.66602ZM14.0241 7.33335C13.8987 8.65106 13.356 11.8487 13.0799 13.3246C12.9631 13.9491 12.733 14.1585 12.5104 14.179C12.0265 14.2235 11.659 13.8592 11.1903 13.5519C10.4568 13.0711 10.0425 12.7718 9.33051 12.3027C8.50776 11.7605 9.04113 11.4626 9.51001 10.9754C9.63273 10.8479 11.765 8.90852 11.8062 8.73258C11.8114 8.71057 11.8163 8.62842 11.7674 8.58527C11.7186 8.54213 11.6468 8.55674 11.5949 8.56847C11.5213 8.58518 10.3497 9.35962 8.07984 10.8918C7.74729 11.1201 7.44606 11.2314 7.17614 11.2256C6.8786 11.2192 6.30625 11.0574 5.88075 10.919C5.35887 10.7494 4.94409 10.6597 4.98021 10.3716C4.99903 10.2215 5.20568 10.0681 5.60017 9.91128C8.02951 8.85286 9.64945 8.15505 10.46 7.81786C12.7742 6.85526 13.2551 6.68806 13.5685 6.68248C13.6375 6.68134 13.7916 6.69841 13.8915 6.77942C13.9579 6.83713 14.0002 6.91767 14.0101 7.0051C14.027 7.11365 14.0317 7.22375 14.0241 7.33335Z" fill="#2B2B2A"/>
</svg>
