<svg width="24" height="24" viewBox="0 0 24 24" fill="none" xmlns="http://www.w3.org/2000/svg">
<path d="M12.2028 11.8002L10.7928 13.2102C10.0128 13.9902 10.0128 15.2602 10.7928 16.0402C11.5728 16.8202 12.8428 16.8202 13.6228 16.0402L15.8428 13.8202C17.4028 12.2602 17.4028 9.73023 15.8428 8.16023C14.2828 6.60023 11.7528 6.60023 10.1828 8.16023L7.76281 10.5802C6.42281 11.9202 6.42281 14.0902 7.76281 15.4302" stroke="#2B2B2A" stroke-width="1.5" stroke-linecap="round" stroke-linejoin="round"/>
<path d="M12 22C17.5228 22 22 17.5228 22 12C22 6.47715 17.5228 2 12 2C6.47715 2 2 6.47715 2 12C2 17.5228 6.47715 22 12 22Z" stroke="#2B2B2A" stroke-width="1.5" stroke-linecap="round" stroke-linejoin="round"/>
</svg>
