<svg width="104" height="52" viewBox="0 0 104 52" fill="none" xmlns="http://www.w3.org/2000/svg">
<g filter="url(#filter0_d_3123_101)">
<circle cx="78" cy="19" r="18" fill="#E42026"/>
<circle cx="78" cy="19" r="17" stroke="white" stroke-width="2"/>
</g>
<path d="M78 7L79.1103 14.5171C79.368 16.2619 80.7381 17.632 82.4829 17.8897L90 19L82.4829 20.1103C80.7381 20.368 79.368 21.7381 79.1103 23.4829L78 31L76.8897 23.4829C76.632 21.7381 75.2619 20.368 73.5171 20.1103L66 19L73.5171 17.8897C75.2619 17.632 76.632 16.2619 76.8897 14.5171L78 7Z" fill="white"/>
<circle cx="26" cy="19" r="18" fill="#2B2B2A"/>
<path d="M26 7L27.1103 14.5171C27.368 16.2619 28.7381 17.632 30.4829 17.8897L38 19L30.4829 20.1103C28.7381 20.368 27.368 21.7381 27.1103 23.4829L26 31L24.8897 23.4829C24.632 21.7381 23.2619 20.368 21.5171 20.1103L14 19L21.5171 17.8897C23.2619 17.632 24.632 16.2619 24.8897 14.5171L26 7Z" fill="white"/>
<defs>
<filter id="filter0_d_3123_101" x="52" y="0" width="52" height="52" filterUnits="userSpaceOnUse" color-interpolation-filters="sRGB">
<feFlood flood-opacity="0" result="BackgroundImageFix"/>
<feColorMatrix in="SourceAlpha" type="matrix" values="0 0 0 0 0 0 0 0 0 0 0 0 0 0 0 0 0 0 127 0" result="hardAlpha"/>
<feOffset dy="7"/>
<feGaussianBlur stdDeviation="4"/>
<feComposite in2="hardAlpha" operator="out"/>
<feColorMatrix type="matrix" values="0 0 0 0 0 0 0 0 0 0 0 0 0 0 0 0 0 0 0.25 0"/>
<feBlend mode="normal" in2="BackgroundImageFix" result="effect1_dropShadow_3123_101"/>
<feBlend mode="normal" in="SourceGraphic" in2="effect1_dropShadow_3123_101" result="shape"/>
</filter>
</defs>
</svg>
