<svg version="1.1" xmlns="http://www.w3.org/2000/svg" xmlns:xlink="http://www.w3.org/1999/xlink">

    <symbol viewBox="0 0 200 19" id="logo">
        <path d="M192.077 18.9119C190.626 18.9167 189.182 18.7185 187.788 18.3234C186.599 18.0169 185.478 17.4982 184.48 16.7935L185.954 13.6344C186.825 14.2283 187.782 14.6898 188.794 15.0033C189.864 15.3586 190.985 15.5406 192.115 15.5422C192.811 15.5597 193.505 15.4762 194.177 15.2945C194.624 15.1754 195.027 14.9349 195.34 14.6007C195.583 14.3158 195.715 13.956 195.713 13.5849C195.721 13.3583 195.671 13.1334 195.569 12.9303C195.466 12.7271 195.314 12.5519 195.125 12.4203C194.647 12.086 194.112 11.8384 193.544 11.6894C192.912 11.5098 192.203 11.3363 191.425 11.1691C190.647 11.0019 189.882 10.7974 189.11 10.5497C188.367 10.3218 187.656 10.0056 186.991 9.60816C186.356 9.23301 185.82 8.71491 185.429 8.09676C185.003 7.36643 184.795 6.53379 184.828 5.6934C184.82 4.67635 185.122 3.68003 185.695 2.83167C186.344 1.91202 187.252 1.19574 188.307 0.76899C189.707 0.21228 191.212 -0.0473927 192.722 0.00710014C193.887 0.00732592 195.048 0.142472 196.181 0.409725C197.249 0.659696 198.268 1.07811 199.198 1.64857L197.864 4.8386C197.043 4.37096 196.166 4.00675 195.252 3.75461C194.418 3.52459 193.556 3.40583 192.69 3.40154C191.995 3.37984 191.302 3.47624 190.641 3.68647C190.193 3.81891 189.795 4.07741 189.496 4.42978C189.264 4.73542 189.141 5.10795 189.148 5.48899C189.144 5.71085 189.195 5.93039 189.296 6.12885C189.398 6.32732 189.546 6.49883 189.73 6.62873C190.2 6.94821 190.725 7.18121 191.28 7.31629C191.912 7.48973 192.627 7.66317 193.399 7.8428C194.17 8.02243 194.942 8.21445 195.72 8.46222C196.463 8.67767 197.175 8.98577 197.839 9.37897C198.471 9.75601 199.004 10.2738 199.395 10.8904C199.822 11.6112 200.03 12.4363 199.995 13.2689C200.004 14.2744 199.697 15.2581 199.116 16.0873C198.455 17.0013 197.546 17.7158 196.491 18.15C195.09 18.7208 193.58 18.9891 192.064 18.9367" />
        <path d="M165 18.5888V0.321991H173.077C174.558 0.28334 176.03 0.553605 177.397 1.11485C178.539 1.59239 179.513 2.38699 180.199 3.40052C180.877 4.4628 181.22 5.69742 181.185 6.94982C181.219 8.19036 180.875 9.41269 180.199 10.4619C179.51 11.4675 178.536 12.2536 177.397 12.7228C176.028 13.2738 174.557 13.5396 173.077 13.5033H167.384L169.282 11.645V18.5888H165ZM176.865 18.5888L172.198 11.9609H176.809L181.527 18.5888H176.865ZM169.32 12.122L167.422 10.1336H172.856C173.919 10.2155 174.977 9.91853 175.835 9.29743C176.164 9.00302 176.422 8.641 176.592 8.23729C176.761 7.83357 176.837 7.39815 176.815 6.9622C176.842 6.52207 176.768 6.08158 176.598 5.67314C176.429 5.26471 176.168 4.89875 175.835 4.6022C174.971 3.98226 173.91 3.6856 172.843 3.76598H167.41L169.307 1.75286L169.32 12.122Z" />
        <path d="M150.18 15.3062C150.971 15.3097 151.755 15.1625 152.488 14.8726C153.173 14.6005 153.797 14.1984 154.322 13.6896C154.868 13.16 155.298 12.5279 155.587 11.8313C155.886 11.0751 156.035 10.2697 156.024 9.45889C156.035 8.64599 155.887 7.83853 155.587 7.08031C155.308 6.38742 154.891 5.75577 154.36 5.22204C153.834 4.70042 153.203 4.29126 152.507 4.02036C151.768 3.73788 150.98 3.597 150.186 3.60534V0.00649728C151.575 -0.0082029 152.954 0.231285 154.253 0.712639C155.451 1.15936 156.547 1.83292 157.479 2.69479C158.389 3.54319 159.117 4.56014 159.623 5.68661C160.15 6.87637 160.413 8.16215 160.394 9.45889C160.409 10.7553 160.146 12.0402 159.623 13.2312C159.125 14.3641 158.398 15.3862 157.485 16.2354C156.549 17.0892 155.454 17.758 154.259 18.2051C152.969 18.6854 151.598 18.9249 150.218 18.9113L150.18 15.3062Z" />
        <path d="M137.381 18.9106C135.982 18.9238 134.593 18.6845 133.283 18.2045C132.076 17.7601 130.971 17.0864 130.032 16.2223C129.122 15.3713 128.397 14.3496 127.9 13.2181C127.386 12.0291 127.128 10.7492 127.141 9.45822C127.127 8.16713 127.386 6.88714 127.9 5.69832C128.396 4.56288 129.126 3.54007 130.044 2.69412C130.988 1.83177 132.094 1.15842 133.302 0.71197C135.921 -0.229511 138.797 -0.229511 141.416 0.71197C142.614 1.15869 143.71 1.83225 144.642 2.69412C145.58 3.56295 146.323 4.61248 146.826 5.77662C147.329 6.94076 147.58 8.19428 147.564 9.45822C147.577 10.755 147.312 12.04 146.786 13.2305C146.289 14.3653 145.56 15.3878 144.642 16.2347C143.706 17.0885 142.611 17.7573 141.416 18.2045C140.128 18.6848 138.759 18.9244 137.381 18.9106ZM137.35 15.3056C138.139 15.315 138.923 15.174 139.658 14.8906C140.352 14.6165 140.983 14.2078 141.511 13.6889C142.058 13.1608 142.489 12.5283 142.776 11.8306C143.075 11.0744 143.223 10.2691 143.213 9.45822C143.224 8.64532 143.076 7.83786 142.776 7.07964C142.499 6.38559 142.082 5.75352 141.549 5.22137C141.023 4.69975 140.392 4.29059 139.696 4.01969C138.957 3.73677 138.169 3.59587 137.375 3.60467C136.587 3.5953 135.805 3.73626 135.073 4.01969C134.378 4.2937 133.748 4.70247 133.219 5.22137C132.67 5.74725 132.239 6.38033 131.954 7.07964C131.65 7.83659 131.499 8.64466 131.512 9.45822C131.502 10.2656 131.652 11.0671 131.954 11.8182C132.232 12.5117 132.65 13.1436 133.181 13.6765C133.707 14.1971 134.339 14.6044 135.035 14.872C135.771 15.1612 136.557 15.3084 137.35 15.3056Z" />
        <path d="M104.941 18.5895V0.322729H113.423C115.275 0.285732 117.109 0.673946 118.78 1.45627C120.267 2.16169 121.522 3.26022 122.404 4.62772C123.304 6.08213 123.759 7.75914 123.714 9.45922C123.75 11.1465 123.296 12.8092 122.404 14.2535C121.524 15.6256 120.268 16.7286 118.78 17.4374C117.111 18.2261 115.276 18.6207 113.423 18.5895H104.941ZM109.261 15.1145H113.214C114.334 15.1415 115.445 14.9057 116.453 14.427C117.343 13.9862 118.083 13.3019 118.584 12.4572C119.106 11.54 119.368 10.5028 119.343 9.45302C119.372 8.3989 119.11 7.35665 118.584 6.43643C118.083 5.59517 117.342 4.91505 116.453 4.47906C115.446 3.9978 114.335 3.76192 113.214 3.7915H109.268L109.261 15.1145Z" />
        <path d="M90.1561 18.9125C88.7592 18.9261 87.3718 18.6867 86.0639 18.2063C84.8574 17.7619 83.7525 17.0883 82.8129 16.2242C81.9015 15.3749 81.1763 14.3527 80.6814 13.22C80.1677 12.031 79.9093 10.7511 79.9224 9.4601C79.9086 8.16901 80.167 6.88902 80.6814 5.7002C81.1863 4.562 81.9272 3.53898 82.8571 2.696C83.7982 1.8337 84.9027 1.1603 86.1081 0.713848C88.7299 -0.227533 91.6076 -0.227533 94.2293 0.713848C95.4271 1.16057 96.5232 1.83413 97.455 2.696C98.3649 3.5444 99.0937 4.56134 99.5991 5.68781C100.126 6.87758 100.389 8.16336 100.371 9.4601C100.385 10.7565 100.122 12.0414 99.5991 13.2324C99.085 14.3702 98.338 15.3927 97.4044 16.2366C96.4686 17.0904 95.3733 17.7592 94.1787 18.2063C92.8883 18.6866 91.5175 18.9261 90.1371 18.9125M90.1371 15.3075C90.9268 15.3168 91.7108 15.1759 92.4457 14.8924C93.1405 14.6113 93.77 14.1952 94.2961 13.6693C94.8222 13.1434 95.2341 12.5186 95.5069 11.8325C95.8118 11.0777 95.9622 10.2717 95.9496 9.4601C95.962 8.64653 95.8116 7.83846 95.5069 7.08152C95.2298 6.38899 94.8148 5.75732 94.2862 5.22325C93.7599 4.70162 93.1289 4.29246 92.433 4.02157C91.6935 3.73909 90.9055 3.59821 90.1118 3.60655C89.3221 3.59716 88.538 3.73811 87.8032 4.02157C87.1098 4.29708 86.4797 4.70566 85.95 5.22325C85.4047 5.75276 84.9744 6.38487 84.685 7.08152C84.3856 7.83974 84.2374 8.6472 84.2486 9.4601C84.2397 10.2668 84.3878 11.0677 84.685 11.8201C84.9648 12.5128 85.3818 13.1443 85.9121 13.6784C86.4519 14.2028 87.0984 14.6101 87.8095 14.8739C88.5478 15.1627 89.3358 15.3099 90.1308 15.3075H90.1371Z" />
        <path d="M60.1445 18.5888V0.321991H68.2214C69.7025 0.28334 71.175 0.553605 72.5413 1.11485C73.6832 1.59239 74.6572 2.38699 75.3432 3.40052C76.0215 4.4628 76.3647 5.69742 76.3299 6.94982C76.3632 8.19036 76.0198 9.41269 75.3432 10.4619C74.6549 11.4675 73.6808 12.2536 72.5413 12.7228C71.1723 13.2738 69.7011 13.5396 68.2214 13.5033H62.529L64.4265 11.645V18.5888H60.1445ZM72.01 18.5888L67.3422 11.9609H71.9594L76.6778 18.5888H72.01ZM64.4644 12.122L62.567 10.1336H68.0064C69.0656 10.2124 70.1184 9.91565 70.9727 9.29743C71.304 9.00442 71.5645 8.6428 71.7351 8.23885C71.9058 7.8349 71.9824 7.39879 71.9594 6.9622C71.9848 6.52353 71.9093 6.08487 71.7386 5.67856C71.5678 5.27225 71.3061 4.90866 70.9727 4.61459C70.1115 3.99558 69.0525 3.69894 67.9874 3.77837H62.548L64.4455 1.76525L64.4644 12.122Z" />
        <path d="M46.1894 18.5952V3.76626H40.2188V0.322266H56.48V3.76626H50.5093V18.5952H46.1894Z" />
        <path d="M30.3516 18.911C28.8988 18.9158 27.4527 18.7177 26.057 18.3226C24.8726 18.0133 23.7559 17.4948 22.7617 16.7926L24.2164 13.6336C25.0879 14.2262 26.0452 14.6877 27.0563 15.0025C28.1207 15.3383 29.2334 15.5035 30.3516 15.4918C31.0476 15.5101 31.7426 15.4266 32.4135 15.2441C32.8605 15.125 33.264 14.8845 33.5773 14.5503C33.8201 14.2654 33.9523 13.9056 33.9504 13.5345C33.9567 13.3142 33.9088 13.0957 33.8109 12.8974C33.7129 12.699 33.5677 12.5266 33.3875 12.3947C32.9187 12.0736 32.3965 11.8347 31.8442 11.6886C31.2118 11.5089 30.497 11.3355 29.7254 11.1683C28.9538 11.001 28.1758 10.7966 27.4042 10.5488C26.6642 10.3212 25.955 10.0072 25.2917 9.61351C24.6571 9.23669 24.1219 8.71894 23.7294 8.10212C23.2926 7.37497 23.0734 6.54212 23.0969 5.69876C23.0889 4.68171 23.3906 3.68539 23.9634 2.83703C24.6144 1.91858 25.5211 1.20262 26.5756 0.774351C27.9734 0.216929 29.4757 -0.0448208 30.9841 0.00626638C32.1515 0.00686976 33.3149 0.142007 34.4501 0.408891C35.5158 0.658761 36.5327 1.0772 37.4607 1.64774L36.1325 4.83776C35.3105 4.36856 34.4305 4.00428 33.514 3.75377C32.6907 3.52555 31.8397 3.40679 30.9841 3.4007C30.2872 3.37866 29.5917 3.47506 28.9285 3.68564C28.4815 3.81972 28.0838 4.07793 27.7837 4.42894C27.5512 4.73459 27.4289 5.10712 27.4358 5.48816C27.4313 5.71074 27.4826 5.931 27.5851 6.12968C27.6877 6.32837 27.8384 6.49942 28.024 6.6279C28.4913 6.94742 29.0143 7.18045 29.5673 7.31545C30.1998 7.48889 30.9145 7.66233 31.6861 7.84196C32.4578 8.0216 33.2357 8.21362 34.0074 8.46139C34.7508 8.67683 35.4629 8.98493 36.1262 9.37813C36.7593 9.75677 37.2941 10.2741 37.6884 10.8895C38.1103 11.6122 38.3163 12.4363 38.283 13.2681C38.2914 14.2735 37.9845 15.2573 37.4038 16.0865C36.7405 16.9927 35.8312 17.6987 34.779 18.1244C33.3784 18.6961 31.868 18.9645 30.3516 18.911Z" />
        <path d="M4.16016 14.6816L5.30496 11.4668H14.8998L16.0762 14.6816H4.16016Z" />
        <path d="M0 18.5952L8.31722 0.322266H12.5802L20.929 18.5952H16.3941L9.56954 2.45927H11.2773L4.42742 18.5952H0Z" />
    </symbol>

    <symbol viewBox="0 0 16 16" id="icon-phone">
        <path d="M14.6454 12.2207C14.6454 12.4607 14.592 12.7073 14.4787 12.9473C14.3654 13.1873 14.2187 13.414 14.0254 13.6273C13.6987 13.9873 13.3387 14.2473 12.932 14.414C12.532 14.5807 12.0987 14.6673 11.632 14.6673C10.952 14.6673 10.2254 14.5073 9.4587 14.1807C8.69203 13.854 7.92536 13.414 7.16536 12.8607C6.3987 12.3007 5.67203 11.6807 4.9787 10.994C4.29203 10.3007 3.67203 9.57398 3.1187 8.81398C2.57203 8.05398 2.13203 7.29398 1.81203 6.54065C1.49203 5.78065 1.33203 5.05398 1.33203 4.36065C1.33203 3.90732 1.41203 3.47398 1.57203 3.07398C1.73203 2.66732 1.98536 2.29398 2.3387 1.96065C2.76536 1.54065 3.23203 1.33398 3.72536 1.33398C3.91203 1.33398 4.0987 1.37398 4.26536 1.45398C4.4387 1.53398 4.59203 1.65398 4.71203 1.82732L6.2587 4.00732C6.3787 4.17398 6.46536 4.32732 6.52536 4.47398C6.58536 4.61398 6.6187 4.75398 6.6187 4.88065C6.6187 5.04065 6.57203 5.20065 6.4787 5.35398C6.39203 5.50732 6.26536 5.66732 6.10536 5.82732L5.5987 6.35398C5.52536 6.42732 5.49203 6.51398 5.49203 6.62065C5.49203 6.67398 5.4987 6.72065 5.51203 6.77398C5.53203 6.82732 5.55203 6.86732 5.56536 6.90732C5.68536 7.12732 5.89203 7.41398 6.18536 7.76065C6.48536 8.10732 6.80536 8.46065 7.15203 8.81398C7.51203 9.16732 7.8587 9.49398 8.21203 9.79398C8.5587 10.0873 8.84536 10.2873 9.07203 10.4073C9.10536 10.4207 9.14536 10.4407 9.19203 10.4607C9.24536 10.4807 9.2987 10.4873 9.3587 10.4873C9.47203 10.4873 9.5587 10.4473 9.63203 10.374L10.1387 9.87398C10.3054 9.70732 10.4654 9.58065 10.6187 9.50065C10.772 9.40732 10.9254 9.36065 11.092 9.36065C11.2187 9.36065 11.352 9.38732 11.4987 9.44732C11.6454 9.50732 11.7987 9.59398 11.9654 9.70732L14.172 11.274C14.3454 11.394 14.4654 11.534 14.5387 11.7006C14.6054 11.8673 14.6454 12.034 14.6454 12.2207Z" stroke-width="1.5" stroke-miterlimit="10" />
    </symbol>

    <symbol viewBox="0 0 32 32" id="icon-burger">
        <path d="M4 9.33398H28" stroke-width="1.5" stroke-linecap="round" />
        <path d="M4 16H28" stroke-width="1.5" stroke-linecap="round" />
        <path d="M4 22.666H28" stroke-width="1.5" stroke-linecap="round" />
    </symbol>

    <symbol viewBox="0 0 40 40" id="menu-close-link">
        <path fill-rule="evenodd" clip-rule="evenodd" d="M11.3523 10.7083C11.1571 10.513 10.8405 10.513 10.6452 10.7083C10.45 10.9036 10.45 11.2201 10.6452 11.4154L19.2786 20.0488L10.6452 28.6823C10.45 28.8775 10.45 29.1941 10.6452 29.3894C10.8405 29.5846 11.1571 29.5846 11.3523 29.3894L19.9858 20.7559L28.6192 29.3894C28.8144 29.5846 29.131 29.5846 29.3263 29.3894C29.5215 29.1941 29.5215 28.8775 29.3263 28.6822L20.6929 20.0488L29.3263 11.4154C29.5215 11.2201 29.5215 10.9036 29.3263 10.7083C29.131 10.513 28.8144 10.513 28.6192 10.7083L19.9858 19.3417L11.3523 10.7083Z" />
    </symbol>

    <symbol viewBox="0 0 153 64" id="logo-footer">
        <path d="M140.479 63.907C138.265 63.9154 136.061 63.6069 133.933 62.9911C131.846 62.3805 130.166 61.5881 128.895 60.614L131.129 55.653C132.458 56.5802 133.917 57.3044 135.459 57.8018C137.09 58.3516 138.799 58.6328 140.519 58.6344C141.583 58.6654 142.645 58.535 143.67 58.2476C144.35 58.0663 144.963 57.6933 145.437 57.1732C145.811 56.7303 146.013 56.1679 146.007 55.5885C146.017 55.237 145.941 54.8884 145.785 54.5732C145.629 54.2581 145.398 53.986 145.112 53.7808C144.399 53.2764 143.6 52.9043 142.754 52.6823C141.78 52.3976 140.706 52.129 139.531 51.8765C138.356 51.624 137.177 51.3053 135.994 50.9203C134.865 50.562 133.783 50.0715 132.77 49.4591C131.804 48.8707 130.989 48.0628 130.393 47.1008C129.784 46.1231 129.479 44.8759 129.477 43.3592C129.465 41.7772 129.925 40.2274 130.799 38.9086C131.68 37.5674 133.008 36.493 134.782 35.6854C136.557 34.8778 138.786 34.4785 141.47 34.4875C143.251 34.486 145.026 34.6979 146.756 35.1187C148.38 35.4894 149.932 36.1246 151.349 36.9988L149.316 42.0001C148.064 41.2726 146.726 40.7059 145.333 40.3133C144.062 39.9597 142.749 39.779 141.43 39.7761C140.368 39.7445 139.309 39.8963 138.298 40.2247C137.617 40.4344 137.011 40.8364 136.552 41.3824C136.196 41.8568 136.007 42.4358 136.015 43.0289C136.008 43.3746 136.085 43.7169 136.241 44.0256C136.397 44.3343 136.627 44.5999 136.909 44.7989C137.623 45.2992 138.422 45.6634 139.268 45.8733C140.242 46.1455 141.316 46.4141 142.491 46.6791C143.666 46.9441 144.845 47.2566 146.028 47.6165C147.16 47.9487 148.243 48.4263 149.252 49.0374C150.218 49.6258 151.033 50.4337 151.629 51.3957C152.237 52.3698 152.543 53.6027 152.545 55.0943C152.555 56.6608 152.086 58.193 151.202 59.4859C150.306 60.8127 148.972 61.8871 147.199 62.709C145.427 63.531 143.187 63.9303 140.479 63.907Z" />
        <path d="M99.1992 63.4182V34.9629H111.514C114.064 34.9629 116.26 35.3756 118.1 36.2011C119.84 36.9409 121.325 38.1756 122.368 39.752C123.373 41.2991 123.875 43.1426 123.875 45.2824C123.875 47.4223 123.373 49.2496 122.368 50.7645C121.323 52.3312 119.838 53.5543 118.1 54.2805C116.258 55.0916 114.063 55.4981 111.514 55.4999H102.858L105.783 52.6125V63.4262L99.1992 63.4182ZM117.289 63.4182L110.174 53.0933H117.206L124.402 63.4182H117.289ZM105.783 53.3377L102.858 50.2461H111.149C113.182 50.2461 114.699 49.8056 115.702 48.9246C116.705 48.0436 117.206 46.8313 117.206 45.2878C117.206 43.7156 116.705 42.4962 115.702 41.6295C114.699 40.7628 113.182 40.3286 111.149 40.3268H102.858L105.783 37.1976V53.3377Z" />
        <path d="M74.71 58.286C75.913 58.2988 77.107 58.078 78.2259 57.636C79.2942 57.2053 80.2634 56.5614 81.0744 55.7435C81.8853 54.9256 82.521 53.951 82.9425 52.8791C83.8378 50.4937 83.8378 47.8646 82.9425 45.4792C82.5136 44.4023 81.8745 43.4216 81.0623 42.5945C80.2625 41.7768 79.2998 41.1362 78.2367 40.7143C77.1102 40.2724 75.9092 40.0517 74.6992 40.0643V34.4748C76.8161 34.4504 78.9188 34.823 80.8985 35.5733C82.7253 36.2689 84.3966 37.3187 85.8165 38.6622C87.9481 40.7496 89.4016 43.4307 89.9875 46.356C90.5734 49.2814 90.2647 52.3154 89.1015 55.0628C88.3409 56.828 87.2266 58.4186 85.8272 59.7364C84.4036 61.0705 82.733 62.1134 80.9092 62.8065C78.9426 63.5532 76.8538 63.9258 74.7503 63.905H74.71V58.286Z" />
        <path d="M52.6007 63.908C50.4702 63.9284 48.3541 63.5559 46.3585 62.8094C44.5166 62.1201 42.8309 61.07 41.4002 59.7206C40.0076 58.3994 38.899 56.8082 38.1421 55.0443C36.5985 51.2942 36.5985 47.0862 38.1421 43.3361C38.8997 41.5692 40.0145 39.9781 41.4163 38.6625C42.8509 37.3182 44.5356 36.2687 46.3746 35.5736C50.3713 34.1096 54.7576 34.1096 58.7543 35.5736C60.5808 36.2699 62.252 37.3196 63.6723 38.6625C65.1037 40.0129 66.2386 41.6464 67.0048 43.459C67.771 45.2716 68.1518 47.2238 68.123 49.1915C68.1444 51.209 67.7446 53.2088 66.9492 55.0631C66.1906 56.8287 65.077 58.4195 63.6777 59.7367C62.2537 61.0702 60.5831 62.1131 58.7597 62.8068C56.7929 63.553 54.7042 63.9256 52.6007 63.9053M52.5604 58.2862C53.7634 58.2989 54.9574 58.0781 56.0764 57.6362C57.1446 57.2061 58.1137 56.5624 58.9243 55.7444C59.7349 54.9264 60.3699 53.9515 60.7903 52.8794C61.6856 50.494 61.6856 47.8649 60.7903 45.4795C60.3624 44.402 59.7231 43.4211 58.9101 42.5947C58.1112 41.7759 57.1483 41.1352 56.0844 40.7146C54.9589 40.2726 53.7588 40.0519 52.5497 40.0646C51.3457 40.0504 50.1505 40.2712 49.031 40.7146C47.9718 41.1425 47.0112 41.7823 46.2081 42.5947C45.3918 43.4185 44.752 44.4001 44.3279 45.4795C43.4331 47.8576 43.4331 50.4798 44.3279 52.8579C44.7515 53.9447 45.3911 54.9343 46.2081 55.7668C47.0088 56.5833 47.9713 57.2237 49.0337 57.647C50.1577 58.0831 51.3548 58.3001 52.5604 58.2862Z" />
        <path d="M2.44922 63.4182V34.9629H15.3742C18.4648 34.9629 21.1893 35.552 23.5476 36.7303C25.8148 37.829 27.7295 39.54 29.0753 41.6698C30.4022 43.7845 31.0657 46.2915 31.0657 49.1905C31.0657 52.0556 30.4022 54.5553 29.0753 56.6898C27.7344 58.8291 25.8189 60.5482 23.5476 61.6508C21.1893 62.8272 18.4648 63.4164 15.3742 63.4182H2.44922ZM9.03256 58.0167H15.0411C16.7499 58.0595 18.444 57.691 19.9806 56.9423C21.3417 56.2589 22.4725 55.1915 23.2333 53.8722C23.9937 52.4278 24.391 50.8201 24.391 49.1878C24.391 47.5556 23.9937 45.9479 23.2333 44.5035C22.4672 43.1938 21.3372 42.1347 19.9806 41.4549C18.4444 40.7049 16.75 40.3364 15.0411 40.3805H9.03256V58.0167Z" />
        <path d="M137.473 29.4327C135.343 29.453 133.228 29.0806 131.233 28.3341C129.391 27.6456 127.704 26.5964 126.272 25.2479C124.88 23.9259 123.772 22.3337 123.017 20.5689C122.231 18.7188 121.836 16.7262 121.856 14.7162C121.836 12.7062 122.231 10.7136 123.017 8.86342C123.772 7.09616 124.886 5.50479 126.288 4.18982C127.723 2.84605 129.408 1.79664 131.246 1.10094C135.243 -0.363074 139.629 -0.363074 143.626 1.10094C145.453 1.79655 147.124 2.84628 148.544 4.18982C149.977 5.53965 151.112 7.1729 151.879 8.98564C152.646 10.7984 153.027 12.7509 152.997 14.7189C153.016 16.7375 152.614 18.7379 151.818 20.5931C151.058 22.3583 149.943 23.949 148.544 25.2667C147.121 26.6008 145.45 27.6437 143.626 28.3368C141.659 29.0833 139.571 29.4558 137.467 29.4353M137.427 23.8243C138.63 23.8371 139.824 23.6164 140.943 23.1743C142.011 22.7437 142.98 22.0998 143.791 21.2819C144.602 20.464 145.238 19.4893 145.659 18.4175C146.118 17.2391 146.346 15.9834 146.331 14.7189C146.349 13.452 146.123 12.1935 145.665 11.0122C145.235 9.93576 144.596 8.95526 143.785 8.12747C142.985 7.30974 142.022 6.66918 140.959 6.24728C139.832 5.80536 138.631 5.58466 137.421 5.59727C136.218 5.58309 135.024 5.80389 133.906 6.24728C132.846 6.67519 131.884 7.31498 131.08 8.12747C130.263 8.95146 129.621 9.93288 129.194 11.0122C128.735 12.1914 128.507 13.4481 128.523 14.7135C128.51 15.9717 128.738 17.2206 129.194 18.3933C129.62 19.479 130.259 20.4682 131.075 21.3022C131.876 22.1181 132.838 22.7584 133.9 23.1824C135.026 23.6187 136.225 23.8357 137.432 23.8217L137.427 23.8243Z" />
        <path d="M91.7109 28.9445V0.489258H104.029C106.575 0.489258 108.77 0.902003 110.615 1.72749C112.355 2.4699 113.839 3.70636 114.883 5.28373C115.884 6.83086 116.385 8.67433 116.387 10.8142C116.389 12.954 115.887 14.7769 114.883 16.2828C113.837 17.8488 112.352 19.0717 110.615 19.7988C108.772 20.6099 106.577 21.0164 104.029 21.0182H95.3692L98.305 18.1308V28.9445H91.7109ZM109.801 28.9445L102.686 18.6196H109.72L116.916 28.9445H109.801ZM98.305 18.864L95.3773 15.7725H103.677C105.708 15.7725 107.225 15.332 108.23 14.451C109.234 13.57 109.736 12.3577 109.734 10.8142C109.734 9.24197 109.232 8.02254 108.23 7.15586C107.227 6.28918 105.709 5.85495 103.677 5.85316H95.3692L98.305 2.72399V18.864Z" />
        <path d="M70.4219 28.9445V5.85316H61.3164V0.489258H86.1134V5.85316H77.0079V28.9445H70.4219Z" />
        <path d="M46.2902 29.433C44.0785 29.4406 41.877 29.1322 39.7525 28.5171C37.6664 27.9082 35.9859 27.1159 34.7109 26.14L36.9484 21.179C38.277 22.1062 39.7362 22.8304 41.2782 23.3277C42.9087 23.8776 44.6178 24.1588 46.3385 24.1604C47.4023 24.1914 48.4645 24.0609 49.4892 23.7736C50.1691 23.5922 50.7826 23.2193 51.2566 22.6992C51.6302 22.2563 51.8323 21.6939 51.826 21.1145C51.8367 20.7626 51.7607 20.4134 51.6047 20.0977C51.4487 19.782 51.2176 19.5095 50.9316 19.3042C50.2168 18.8017 49.4182 18.4306 48.5733 18.2083C47.5992 17.9236 46.5248 17.655 45.3501 17.4025C44.1754 17.15 42.9963 16.8313 41.8127 16.4463C40.6842 16.0885 39.6023 15.598 38.5895 14.9851C37.6228 14.3967 36.8085 13.5888 36.2124 12.6268C35.6036 11.6509 35.2983 10.4037 35.2965 8.88523C35.2839 7.30317 35.744 5.75339 36.618 4.43456C37.499 3.09336 38.8268 2.01897 40.6013 1.21139C42.3758 0.4038 44.5998 7.75594e-06 47.2733 7.75594e-06C49.0542 -0.00147776 50.8288 0.210434 52.5593 0.631213C54.1828 1.0024 55.7345 1.63757 57.1523 2.5114L55.111 7.52075C53.8594 6.79321 52.5211 6.22647 51.1277 5.83396C49.857 5.47925 48.5441 5.29853 47.2249 5.29676C46.1629 5.26516 45.1035 5.4169 44.0931 5.74532C43.4118 5.95503 42.8055 6.35702 42.3472 6.90298C41.9912 7.37744 41.8023 7.95639 41.81 8.54948C41.805 8.89324 41.8841 9.233 42.0405 9.53917C42.1968 9.84534 42.4257 10.1086 42.7071 10.3061C43.4204 10.8063 44.2199 11.1706 45.0654 11.3805C46.0395 11.6509 47.1139 11.9195 48.2886 12.1863C49.4632 12.4531 50.6469 12.7683 51.8394 13.1318C52.9708 13.464 54.0542 13.9416 55.0626 14.5527C56.0334 15.1431 56.8508 15.9549 57.4478 16.9217C58.0584 17.8976 58.3637 19.1305 58.3637 20.6203C58.3738 22.1868 57.9052 23.719 57.0207 25.0119C56.1254 26.3387 54.7913 27.4131 53.0186 28.235C51.2458 29.0569 49.0075 29.4634 46.3036 29.4545" />
        <path d="M6.33984 22.847L8.08842 17.8457H22.7216L24.5105 22.847H6.33984Z" />
        <path d="M0 28.9445L12.6832 0.489258H19.1886L31.9121 28.9445H25.0011L14.5929 3.81987H17.1956L6.74987 28.9445H0Z" />
    </symbol>

    <symbol viewBox="0 0 16 16" id="icon-star">
        <path d="M8.3125 0.954102L8.84367 4.55033C9.10138 6.29513 10.4715 7.66522 12.2163 7.92293L15.8125 8.4541L12.2163 8.98527C10.4715 9.24298 9.10138 10.6131 8.84367 12.3579L8.3125 15.9541L7.78133 12.3579C7.52362 10.6131 6.15353 9.24298 4.40873 8.98527L0.8125 8.4541L4.40873 7.92293C6.15353 7.66522 7.52362 6.29513 7.78133 4.55033L8.3125 0.954102Z" />
    </symbol>

    <symbol viewBox="0 0 40 41" id="footer-social-vk">
        <path d="M20.9808 26.4618C20.9808 26.4618 21.3418 26.4224 21.5267 26.2275C21.6959 26.0489 21.69 25.7119 21.69 25.7119C21.69 25.7119 21.6675 24.1381 22.4119 23.9057C23.1456 23.6772 24.0876 25.4276 25.0873 26.1007C25.8425 26.6097 26.4157 26.4983 26.4157 26.4983L29.0872 26.4618C29.0872 26.4618 30.484 26.3773 29.8218 25.299C29.767 25.2106 29.4354 24.5011 27.8361 23.0435C26.1604 21.5177 26.3854 21.7645 28.4024 19.1249C29.6311 17.5175 30.1221 16.5362 29.9685 16.1166C29.8228 15.7152 28.9189 15.8218 28.9189 15.8218L25.9119 15.8401C25.9119 15.8401 25.6889 15.8103 25.5236 15.9073C25.3622 16.0023 25.2575 16.2241 25.2575 16.2241C25.2575 16.2241 24.7821 17.4676 24.1473 18.5257C22.8081 20.7572 22.273 20.8753 22.0539 20.7371C21.5443 20.4135 21.6714 19.4389 21.6714 18.7466C21.6714 16.5833 22.006 15.6816 21.0209 15.4483C20.6942 15.3705 20.4536 15.3196 19.6172 15.311C18.5441 15.3004 17.6364 15.3148 17.1218 15.5616C16.7795 15.7258 16.5153 16.0926 16.6767 16.1137C16.8753 16.1396 17.3253 16.2328 17.564 16.5516C17.8721 16.9635 17.8613 17.8872 17.8613 17.8872C17.8613 17.8872 18.0384 20.4337 17.4476 20.7496C17.0426 20.9666 16.487 20.5239 15.2926 18.4989C14.6812 17.4618 14.2195 16.3154 14.2195 16.3154C14.2195 16.3154 14.1305 16.1012 13.971 15.986C13.7783 15.8468 13.5093 15.8036 13.5093 15.8036L10.652 15.8218C10.652 15.8218 10.2226 15.8333 10.0651 16.0167C9.92521 16.179 10.0543 16.516 10.0543 16.516C10.0543 16.516 12.2915 21.6541 14.825 24.2437C17.1482 26.6173 19.7855 26.4618 19.7855 26.4618H20.9808Z" />
    </symbol>

    <symbol viewBox="0 0 40 41" id="footer-social-tg">
        <path d="M17.8354 23.591L17.5224 28.2792C17.9822 28.2792 18.1854 28.0689 18.442 27.8194L20.6511 25.6713L25.247 29.0668C26.0928 29.5335 26.7032 29.2919 26.9139 28.2816L29.931 14.0642C30.2398 12.8258 29.4589 12.2641 28.6497 12.6315L10.9338 19.4627C9.72454 19.9477 9.73159 20.6224 10.7134 20.923L15.2597 22.342L25.7849 15.7017C26.2818 15.4004 26.7378 15.5624 26.3635 15.8946L17.8351 23.5908L17.8354 23.591Z" />
    </symbol>

    <symbol viewBox="0 0 40 41" id="footer-social-yt">
        <path fill-rule="evenodd" clip-rule="evenodd" d="M27.836 14.1297C28.6991 14.3665 29.3789 15.0644 29.6096 15.9507C30.0288 17.5569 30.0288 20.9083 30.0288 20.9083C30.0288 20.9083 30.0288 24.2596 29.6096 25.8659C29.3789 26.7522 28.6991 27.4501 27.836 27.687C26.2717 28.1174 19.9988 28.1174 19.9988 28.1174C19.9988 28.1174 13.7258 28.1174 12.1614 27.687C11.2983 27.4501 10.6185 26.7522 10.3878 25.8659C9.96875 24.2596 9.96875 20.9083 9.96875 20.9083C9.96875 20.9083 9.96875 17.5569 10.3878 15.9507C10.6185 15.0644 11.2983 14.3665 12.1614 14.1297C13.7258 13.6992 19.9988 13.6992 19.9988 13.6992C19.9988 13.6992 26.2717 13.6992 27.836 14.1297ZM18.1182 18.0802V24.349L23.1332 21.2147L18.1182 18.0802Z" />
    </symbol>

    <symbol viewBox="0 0 81 13" id="logo-uxband">
        <path d="M10.7899 11.2209C9.83207 12.0629 8.40667 12.4838 6.51365 12.4838C4.62063 12.4838 3.19523 12.06 2.23745 11.2124C1.27967 10.3648 0.800781 9.12755 0.800781 7.50062V0.333008H3.30227V7.27876C3.30227 9.37216 4.37273 10.4189 6.51365 10.4189C8.65457 10.4189 9.72503 9.37216 9.72503 7.27876V0.333008H12.2265V7.50062C12.2265 9.12755 11.7476 10.3677 10.7899 11.2209Z" />
        <path d="M26.3216 12.279H23.4144L20.1016 7.859L16.7888 12.279H14L18.7157 6.18655L14.3549 0.333008H17.279L20.1692 4.44585L23.1102 0.333008H25.899L21.589 6.10123L26.3216 12.279Z" />
        <path d="M35.6204 6.15242C36.7697 6.24344 37.6684 6.52787 38.3163 7.00571C38.9642 7.48355 39.2881 8.17187 39.2881 9.07066C39.2881 10.0946 38.874 10.8853 38.0458 11.4428C37.2176 12.0003 36.0937 12.279 34.6739 12.279H28.1328V0.333008H34.6063C35.8908 0.333008 36.9219 0.597527 37.6993 1.12656C38.4768 1.6556 38.8656 2.41503 38.8656 3.40484C38.8656 5.0204 37.7839 5.93626 35.6204 6.15242ZM35.857 4.88956C36.2063 4.61651 36.381 4.24675 36.381 3.78029C36.381 3.31382 36.2091 2.94691 35.8655 2.67955C35.5218 2.41218 35.0401 2.2785 34.4204 2.2785H30.6343V5.28207H34.4204C35.0288 5.28207 35.5077 5.15123 35.857 4.88956ZM34.4373 10.3335C36.0035 10.3335 36.7866 9.7988 36.7866 8.72935C36.7866 7.67127 36.0486 7.14224 34.5725 7.14224H30.6343V10.3335H34.4373Z" />
        <path d="M50.6615 12.279L49.6474 9.5485H43.681L42.6669 12.279H40.1992L44.8304 0.333008H48.5657L53.2306 12.279H50.6615ZM44.4078 7.63714H48.9375L46.6727 1.54467L44.4078 7.63714Z" />
        <path d="M64.1152 0.333008H66.4984V12.279H62.2898L57.2699 1.80066V12.279H54.8867V0.333008H59.1122L64.1152 10.8114V0.333008Z" />
        <path d="M74.7823 0.333008C76.7429 0.333008 78.2697 0.862046 79.3627 1.92012C80.4557 2.9782 81.0022 4.44016 81.0022 6.30601C81.0022 8.17187 80.4557 9.63383 79.3627 10.6919C78.2697 11.75 76.7429 12.279 74.7823 12.279H69.3398V0.333008H74.7823ZM74.5118 10.2141C75.8077 10.2141 76.7964 9.86706 77.4782 9.17306C78.1599 8.47905 78.5007 7.52337 78.5007 6.30601C78.5007 5.08866 78.1599 4.13298 77.4782 3.43897C76.7964 2.74496 75.8077 2.39796 74.5118 2.39796H71.8413V10.2141H74.5118Z" />
    </symbol>

    <symbol viewBox="0 0 24 24" id="btn-arrow">
        <path d="M14.4297 5.92969L20.4997 11.9997L14.4297 18.0697" stroke-miterlimit="10" stroke-linecap="round" stroke-linejoin="round" />
        <path d="M3.5 12H20.33" stroke-miterlimit="10" stroke-linecap="round" stroke-linejoin="round" />
    </symbol>

    <symbol viewBox="0 0 24 24" id="btn-phone">
        <path d="M21.97 18.33C21.97 18.69 21.89 19.06 21.72 19.42C21.55 19.78 21.33 20.12 21.04 20.44C20.55 20.98 20.01 21.37 19.4 21.62C18.8 21.87 18.15 22 17.45 22C16.43 22 15.34 21.76 14.19 21.27C13.04 20.78 11.89 20.12 10.75 19.29C9.6 18.45 8.51 17.52 7.47 16.49C6.44 15.45 5.51 14.36 4.68 13.22C3.86 12.08 3.2 10.94 2.72 9.81C2.24 8.67 2 7.58 2 6.54C2 5.86 2.12 5.21 2.36 4.61C2.6 4 2.98 3.44 3.51 2.94C4.15 2.31 4.85 2 5.59 2C5.87 2 6.15 2.06 6.4 2.18C6.66 2.3 6.89 2.48 7.07 2.74L9.39 6.01C9.57 6.26 9.7 6.49 9.79 6.71C9.88 6.92 9.93 7.13 9.93 7.32C9.93 7.56 9.86 7.8 9.72 8.03C9.59 8.26 9.4 8.5 9.16 8.74L8.4 9.53C8.29 9.64 8.24 9.77 8.24 9.93C8.24 10.01 8.25 10.08 8.27 10.16C8.3 10.24 8.33 10.3 8.35 10.36C8.53 10.69 8.84 11.12 9.28 11.64C9.73 12.16 10.21 12.69 10.73 13.22C11.27 13.75 11.79 14.24 12.32 14.69C12.84 15.13 13.27 15.43 13.61 15.61C13.66 15.63 13.72 15.66 13.79 15.69C13.87 15.72 13.95 15.73 14.04 15.73C14.21 15.73 14.34 15.67 14.45 15.56L15.21 14.81C15.46 14.56 15.7 14.37 15.93 14.25C16.16 14.11 16.39 14.04 16.64 14.04C16.83 14.04 17.03 14.08 17.25 14.17C17.47 14.26 17.7 14.39 17.95 14.56L21.26 16.91C21.52 17.09 21.7 17.3 21.81 17.55C21.91 17.8 21.97 18.05 21.97 18.33Z" stroke-linecap="round" stroke-linejoin="round" />
        <path d="M18.5 9C18.5 8.4 18.03 7.48 17.33 6.73C16.69 6.04 15.84 5.5 15 5.5" stroke-linecap="round" stroke-linejoin="round" />
        <path d="M22 9C22 5.13 18.87 2 15 2" stroke-linecap="round" stroke-linejoin="round" />
    </symbol>

    <symbol viewBox="0 0 20 20" id="icon-whatsapp-menu">
        <path d="M1.66741 18.3327L2.79407 14.1927C2.05169 12.9201 1.66165 11.4727 1.66407 9.99935C1.66407 5.39685 5.39491 1.66602 9.99741 1.66602C14.5999 1.66602 18.3307 5.39685 18.3307 9.99935C18.3307 14.6018 14.5999 18.3327 9.99741 18.3327C8.52472 18.3351 7.07795 17.9453 5.80574 17.2035L1.66741 18.3327ZM6.98991 6.08935C6.88229 6.09603 6.77714 6.12437 6.68074 6.17268C6.59034 6.22387 6.50782 6.28787 6.43574 6.36268C6.33574 6.45685 6.27907 6.53852 6.21824 6.61768C5.91025 7.01851 5.74458 7.51053 5.74741 8.01602C5.74907 8.42435 5.85574 8.82185 6.02241 9.19352C6.36324 9.94518 6.92407 10.741 7.66491 11.4785C7.84324 11.656 8.01741 11.8343 8.20491 12.0002C9.1244 12.8097 10.2201 13.3935 11.4049 13.7052L11.8791 13.7777C12.0332 13.786 12.1874 13.7743 12.3424 13.7668C12.5851 13.7543 12.8221 13.6886 13.0366 13.5743C13.1749 13.501 13.2399 13.4643 13.3557 13.391C13.3557 13.391 13.3916 13.3677 13.4599 13.316C13.5724 13.2327 13.6416 13.1735 13.7349 13.076C13.8041 13.0043 13.8641 12.9202 13.9099 12.8243C13.9749 12.6885 14.0399 12.4293 14.0666 12.2135C14.0866 12.0485 14.0807 11.9585 14.0782 11.9027C14.0749 11.8135 14.0007 11.721 13.9199 11.6818L13.4349 11.4643C13.4349 11.4643 12.7099 11.1485 12.2674 10.9468C12.2208 10.9265 12.1708 10.9149 12.1199 10.9127C12.0629 10.9068 12.0053 10.9132 11.951 10.9315C11.8966 10.9498 11.8468 10.9794 11.8049 11.0185V11.0168C11.8007 11.0168 11.7449 11.0643 11.1424 11.7943C11.1078 11.8408 11.0602 11.8759 11.0056 11.8952C10.951 11.9145 10.8918 11.9171 10.8357 11.9027C10.7814 11.8882 10.7283 11.8698 10.6766 11.8477C10.5732 11.8043 10.5374 11.7877 10.4666 11.7568L10.4624 11.7552C9.98567 11.547 9.54426 11.2659 9.15407 10.9218C9.04907 10.8302 8.95157 10.7302 8.85157 10.6335C8.52372 10.3195 8.238 9.96436 8.00157 9.57685L7.95241 9.49768C7.91709 9.44449 7.88854 9.3871 7.86741 9.32685C7.83574 9.20435 7.91824 9.10602 7.91824 9.10602C7.91824 9.10602 8.12074 8.88435 8.21491 8.76435C8.29332 8.66462 8.36647 8.56087 8.43407 8.45352C8.53241 8.29518 8.56324 8.13268 8.51157 8.00685C8.27824 7.43685 8.03657 6.86935 7.78824 6.30602C7.73907 6.19435 7.59324 6.11435 7.46074 6.09852C7.41574 6.09352 7.37074 6.08852 7.32574 6.08518C7.21383 6.07962 7.10169 6.08157 6.98991 6.08935Z" />
    </symbol>

    <symbol viewBox="0 0 21 20" id="icon-telegram-menu">
        <path d="M10.4974 1.66602C5.89501 1.66602 2.16406 5.39696 2.16406 9.99935C2.16406 14.6017 5.89501 18.3327 10.4974 18.3327C15.0998 18.3327 18.8307 14.6017 18.8307 9.99935C18.8307 5.39696 15.0998 1.66602 10.4974 1.66602ZM14.36 7.33335C14.2346 8.65106 13.692 11.8487 13.4158 13.3246C13.299 13.9491 13.069 14.1585 12.8463 14.179C12.3624 14.2235 11.9949 13.8592 11.5262 13.5519C10.7928 13.0711 10.3784 12.7718 9.66645 12.3027C8.8437 11.7605 9.37707 11.4626 9.84595 10.9754C9.96867 10.8479 12.1009 8.90852 12.1422 8.73258C12.1473 8.71057 12.1522 8.62842 12.1034 8.58527C12.0545 8.54213 11.9827 8.55674 11.9308 8.56847C11.8573 8.58518 10.6856 9.35962 8.41578 10.8918C8.08323 11.1201 7.78199 11.2314 7.51208 11.2256C7.21453 11.2192 6.64219 11.0574 6.21668 10.919C5.69481 10.7494 5.28002 10.6597 5.31615 10.3716C5.33496 10.2215 5.54162 10.0681 5.93611 9.91128C8.36545 8.85286 9.98539 8.15505 10.7959 7.81786C13.1102 6.85526 13.591 6.68806 13.9045 6.68248C13.9734 6.68134 14.1276 6.69841 14.2274 6.77942C14.2938 6.83713 14.3361 6.91767 14.346 7.0051C14.3629 7.11365 14.3676 7.22375 14.36 7.33335Z" />
    </symbol>

    <symbol viewBox="0 0 24 24" id="slider-prev">
        <path d="M9.57 5.92969L3.5 11.9997L9.57 18.0697" stroke-miterlimit="10" stroke-linecap="round" stroke-linejoin="round" />
        <path d="M20.4999 12H3.66992" stroke-miterlimit="10" stroke-linecap="round" stroke-linejoin="round" />
    </symbol>

    <symbol viewBox="0 0 24 24" id="slider-next">
        <path d="M14.4297 5.92969L20.4997 11.9997L14.4297 18.0697" stroke-miterlimit="10" stroke-linecap="round" stroke-linejoin="round" />
        <path d="M3.5 12H20.33" stroke-miterlimit="10" stroke-linecap="round" stroke-linejoin="round" />
    </symbol>

    <symbol viewBox="0 0 40 41" id="catalogue-slider-prev">
        <path d="M15.9502 10.3828L5.8335 20.4995L15.9502 30.6161" stroke-width="1.2" stroke-miterlimit="10" stroke-linecap="round" stroke-linejoin="round" />
        <path d="M34.1667 20.5H6.1167" stroke-width="1.2" stroke-miterlimit="10" stroke-linecap="round" stroke-linejoin="round" />
    </symbol>

    <symbol viewBox="0 0 40 41" id="catalogue-slider-next">
        <path d="M24.0503 10.3828L34.167 20.4995L24.0503 30.6161" stroke-width="1.2" stroke-miterlimit="10" stroke-linecap="round" stroke-linejoin="round" />
        <path d="M5.8335 20.5H33.8835" stroke-width="1.2" stroke-miterlimit="10" stroke-linecap="round" stroke-linejoin="round" />
    </symbol>

    <symbol viewBox="0 0 30 31" id="icon-plus">
        <path d="M22.5 15.0938H7.5" stroke-width="1.2" stroke-linecap="round" stroke-linejoin="round" />
        <path d="M15 22.5938V7.59375" stroke-width="1.2" stroke-linecap="round" stroke-linejoin="round" />
    </symbol>

    <symbol viewBox="0 0 30 31" id="icon-minus">
        <path d="M22.5 15.0938H7.5" stroke-width="1.2" stroke-linecap="round" stroke-linejoin="round" />
    </symbol>

    <symbol viewBox="0 0 32 33" id="icon-location">
        <path d="M4.82758 11.8203C7.45425 0.273662 24.5609 0.286995 27.1742 11.8337C28.7076 18.607 24.4942 24.3403 20.8009 27.887C18.1209 30.4737 13.8809 30.4737 11.1876 27.887C7.50758 24.3403 3.29425 18.5937 4.82758 11.8203Z" stroke-width="1.5" />
        <path d="M12.332 15.8333L14.332 17.8333L19.6654 12.5" stroke-width="1.5" stroke-linecap="round" stroke-linejoin="round" />
    </symbol>

    <symbol viewBox="0 0 24 24" id="file-remove">
        <path fill-rule="evenodd" clip-rule="evenodd" d="M7.13161 6.10679C6.83871 5.81389 6.36384 5.8139 6.07095 6.10679C5.77805 6.39968 5.77805 6.87456 6.07095 7.16745L10.9328 12.0293L6.07095 16.8911C5.77805 17.184 5.77805 17.6589 6.07095 17.9518C6.36384 18.2447 6.83871 18.2447 7.13161 17.9518L11.9935 13.09L16.8553 17.9518C17.1482 18.2447 17.6231 18.2447 17.916 17.9518C18.2089 17.6589 18.2089 17.1841 17.916 16.8912L13.0541 12.0293L17.916 7.16743C18.2089 6.87454 18.2089 6.39967 17.916 6.10677C17.6231 5.81388 17.1482 5.81388 16.8553 6.10677L11.9935 10.9686L7.13161 6.10679Z" />
    </symbol>

    <symbol viewBox="0 0 24 25" id="detail-cost-value-hint">
        <path fill-rule="evenodd" clip-rule="evenodd" d="M12 22.5C17.5228 22.5 22 18.0228 22 12.5C22 6.97715 17.5228 2.5 12 2.5C6.47715 2.5 2 6.97715 2 12.5C2 18.0228 6.47715 22.5 12 22.5ZM13.123 6.11719C12.9863 5.96094 12.8203 5.88281 12.625 5.88281C12.3385 5.88281 12.0977 5.99349 11.9023 6.21484C11.707 6.4362 11.6094 6.69661 11.6094 6.99609C11.6094 7.23047 11.668 7.42904 11.7852 7.5918C11.9023 7.75456 12.0651 7.83594 12.2734 7.83594C12.5729 7.83594 12.8236 7.71875 13.0254 7.48438C13.2272 7.25 13.3281 6.97656 13.3281 6.66406C13.3281 6.45573 13.2598 6.27344 13.123 6.11719ZM12.5469 10.2871C12.4297 10.0983 12.2669 10.0039 12.0586 10.0039C11.8372 10.0039 11.5703 10.1081 11.2578 10.3164C10.9453 10.5247 10.6523 10.7624 10.3789 11.0293C10.1055 11.2897 9.91667 11.5078 9.8125 11.6836C9.8125 11.7357 9.84831 11.8236 9.91992 11.9473C9.99154 12.071 10.0404 12.1328 10.0664 12.1328L10.1641 12.0156C10.2227 11.944 10.3138 11.8464 10.4375 11.7227C10.5612 11.5924 10.6882 11.4753 10.8184 11.3711C10.9551 11.2669 11.0625 11.2148 11.1406 11.2148C11.2708 11.2148 11.3359 11.3776 11.3359 11.7031C11.3359 11.8398 11.3034 12.1003 11.2383 12.4844L10.4375 16.5664C10.3464 17.0612 10.3008 17.4062 10.3008 17.6016C10.3008 17.901 10.3594 18.1452 10.4766 18.334C10.5938 18.5228 10.7565 18.6172 10.9648 18.6172C11.2383 18.6172 11.5443 18.5065 11.8828 18.2852C12.2214 18.0573 12.5339 17.7969 12.8203 17.5039C13.1133 17.2109 13.3151 16.9701 13.4258 16.7812C13.4258 16.7292 13.39 16.6413 13.3184 16.5176C13.2467 16.3939 13.1979 16.332 13.1719 16.332L13.0547 16.4688C12.8919 16.6315 12.6966 16.8301 12.4688 17.0645C12.2409 17.2923 12.0456 17.4062 11.8828 17.4062C11.7526 17.4062 11.6875 17.2435 11.6875 16.918C11.6875 16.7487 11.707 16.5859 11.7461 16.4297L12.6055 12.0547C12.6836 11.6315 12.7227 11.2865 12.7227 11.0195C12.7227 10.7201 12.6641 10.4759 12.5469 10.2871Z" />
    </symbol>

    <symbol viewBox="0 0 16 17" id="link-arrow">
        <path d="M9.61719 4.45312L13.6639 8.49979L9.61719 12.5465" stroke-width="1.5" stroke-miterlimit="10" stroke-linecap="round" stroke-linejoin="round" />
        <path d="M2.33594 8.5H13.5559" stroke-width="1.5" stroke-miterlimit="10" stroke-linecap="round" stroke-linejoin="round" />
    </symbol>

    <symbol viewBox="0 0 60 60" id="window-photo-close">
        <path fill-rule="evenodd" clip-rule="evenodd" d="M17.0363 16.0615C16.7434 15.7686 16.2685 15.7686 15.9756 16.0615C15.6827 16.3544 15.6827 16.8293 15.9756 17.1221L28.9257 30.0723L15.9756 43.0224C15.6827 43.3153 15.6827 43.7901 15.9756 44.083C16.2685 44.3759 16.7434 44.3759 17.0363 44.083L29.9864 31.1329L42.9365 44.0831C43.2294 44.376 43.7043 44.376 43.9972 44.0831C44.2901 43.7902 44.2901 43.3153 43.9972 43.0224L31.0471 30.0723L43.9972 17.1221C44.2901 16.8292 44.2901 16.3543 43.9972 16.0615C43.7043 15.7686 43.2294 15.7686 42.9365 16.0615L29.9864 29.0116L17.0363 16.0615Z" />
    </symbol>

    <symbol viewBox="0 0 20 20" id="icon-search">
        <path d="M9.58073 17.5003C13.953 17.5003 17.4974 13.9559 17.4974 9.58366C17.4974 5.2114 13.953 1.66699 9.58073 1.66699C5.20848 1.66699 1.66406 5.2114 1.66406 9.58366C1.66406 13.9559 5.20848 17.5003 9.58073 17.5003Z" stroke-width="1.5" stroke-linecap="round" stroke-linejoin="round" />
        <path d="M18.3307 18.3337L16.6641 16.667" stroke-width="1.5" stroke-linecap="round" stroke-linejoin="round" />
    </symbol>

    <symbol viewBox="0 0 16 16" id="buy-list-ctrl">
        <path d="M9.99729 13.2797L5.65062 8.93306C5.13729 8.41973 5.13729 7.57973 5.65062 7.06639L9.99729 2.71973" stroke-width="1.5" stroke-miterlimit="10" stroke-linecap="round" stroke-linejoin="round" />
    </symbol>

    <symbol viewBox="0 0 16 16" id="icon-remove">
        <path fill-rule="evenodd" clip-rule="evenodd" d="M4.93578 3.89441C4.64288 3.60152 4.16801 3.60152 3.87512 3.89441C3.58222 4.18731 3.58222 4.66218 3.87512 4.95507L6.93957 8.01953L3.87512 11.084C3.58222 11.3769 3.58222 11.8518 3.87512 12.1446C4.16801 12.4375 4.64288 12.4375 4.93578 12.1446L8.00024 9.08019L11.0647 12.1447C11.3576 12.4375 11.8325 12.4375 12.1254 12.1447C12.4183 11.8518 12.4183 11.3769 12.1254 11.084L9.0609 8.01953L12.1254 4.95507C12.4183 4.66217 12.4183 4.1873 12.1254 3.89441C11.8325 3.60151 11.3576 3.60151 11.0647 3.89441L8.00024 6.95887L4.93578 3.89441Z" />
    </symbol>

</svg>