<svg width="120" height="120" viewBox="0 0 120 120" fill="none" xmlns="http://www.w3.org/2000/svg">
<rect x="0.5" y="0.5" width="119" height="119" stroke="white"/>
<path d="M119.5 0.5H0.5V30V59.5H119.5V0.5Z" stroke="white"/>
<mask id="path-3-inside-1_1570_29208" fill="white">
<path fill-rule="evenodd" clip-rule="evenodd" d="M59.7596 59.9998C26.755 59.9998 -0.000419617 86.7553 -0.000419617 119.76H119.52C119.52 86.7553 92.7641 59.9998 59.7596 59.9998Z"/>
</mask>
<path d="M-0.000419617 119.76H-1.00042V120.76H-0.000419617V119.76ZM119.52 119.76V120.76H120.52V119.76H119.52ZM0.99958 119.76C0.99958 87.3076 27.3073 60.9998 59.7596 60.9998V58.9998C26.2028 58.9998 -1.00042 86.203 -1.00042 119.76H0.99958ZM-0.000419617 120.76H119.52V118.76H-0.000419617V120.76ZM59.7596 60.9998C92.2118 60.9998 118.52 87.3076 118.52 119.76H120.52C120.52 86.203 93.3164 58.9998 59.7596 58.9998V60.9998Z" fill="white" mask="url(#path-3-inside-1_1570_29208)"/>
<path d="M96.6992 0.5H0.499222V30V59.5H96.6992V0.5Z" stroke="white"/>
</svg>
