<svg width="120" height="120" viewBox="0 0 120 120" fill="none" xmlns="http://www.w3.org/2000/svg">
<rect x="0.5" y="0.5" width="119" height="119" stroke="white"/>
<path d="M119.5 0.5H0.500084V30V59.5H119.5V0.5Z" stroke="white"/>
<mask id="path-3-inside-1_1570_29194" fill="white">
<path fill-rule="evenodd" clip-rule="evenodd" d="M59.7595 59.9997C26.755 59.9997 -0.000457764 86.7552 -0.000457764 119.76H119.519C119.519 86.7552 92.764 59.9997 59.7595 59.9997Z"/>
</mask>
<path d="M-0.000457764 119.76H-1.00046V120.76H-0.000457764V119.76ZM119.519 119.76V120.76H120.519V119.76H119.519ZM0.999542 119.76C0.999542 87.3075 27.3073 60.9997 59.7595 60.9997V58.9997C26.2027 58.9997 -1.00046 86.2029 -1.00046 119.76H0.999542ZM-0.000457764 120.76H119.519V118.76H-0.000457764V120.76ZM59.7595 60.9997C92.2117 60.9997 118.519 87.3075 118.519 119.76H120.519C120.519 86.2029 93.3163 58.9997 59.7595 58.9997V60.9997Z" fill="white" mask="url(#path-3-inside-1_1570_29194)"/>
<path d="M59.5 0.5H0.500042V30V59.5H59.5V0.5Z" stroke="white"/>
</svg>
